<?xml version="1.0" encoding="iso-8859-1"?>
<!-- Generator: Adobe Illustrator 16.0.0, SVG Export Plug-In . SVG Version: 6.00 Build 0)  -->
<!DOCTYPE svg PUBLIC "-//W3C//DTD SVG 1.1//EN" "http://www.w3.org/Graphics/SVG/1.1/DTD/svg11.dtd">
<svg version="1.1" xmlns="http://www.w3.org/2000/svg" xmlns:xlink="http://www.w3.org/1999/xlink" x="0px" y="0px" width="512px"
	 height="512px" viewBox="0 0 512 512" style="enable-background:new 0 0 512 512;" xml:space="preserve">
<g id="Guides_For_Artboard">
</g>
<g id="Artwork">
</g>
<g id="Layer_3">
	<g>
		<circle style="fill:#664B3A;" cx="256" cy="255.997" r="245"/>
		<g>
			<path style="fill:#FFFFFF;" d="M260.364,128.951L260.364,128.951h0.002c33.825-0.027,67.872,2.018,68.407,6.136
				c0.055,0.417,0.094,0.838,0.145,1.256c-0.246-11.851-7.213-22.061-17.291-27.036c-3.84-10.467-13.973-17.944-25.869-17.944
				c-0.439,0-0.875,0.013-1.309,0.033c-5.04-5.613-12.385-9.153-20.566-9.153c-8.329,0-15.787,3.669-20.834,9.458
				c-1.41-0.221-2.855-0.338-4.329-0.338c-11.199,0-20.829,6.63-25.125,16.139c-12.447,3.893-21.506,15.303-21.783,28.85
				c0.051-0.421,0.091-0.845,0.146-1.265C192.492,130.968,226.539,128.923,260.364,128.951z"/>
			<path style="fill:#EAEBEC;" d="M315.31,403.276c0,0-0.003,0-0.004,0c-1.584-13.299-3.691-22.265-5.646-35.608
				s-5.858-53.009,1.822-84.215c10.04-40.781,19.291-74.395,18.874-115.943c-0.104-10.354-0.201-20.896-1.438-31.167
				c-0.051-0.418-0.09-0.839-0.145-1.256c-0.535-4.119-34.582-6.164-68.407-6.136h-0.001h-0.001
				c-33.825-0.027-67.872,2.018-68.407,6.136c-0.055,0.42-0.095,0.844-0.146,1.265c-1.236,10.267-1.333,20.807-1.438,31.158
				c-0.417,41.549,8.834,75.162,18.874,115.943c7.681,31.207,3.776,70.872,1.822,84.215s-4.062,22.309-5.646,35.608
				c-0.001,0-0.003,0-0.003,0c-0.308,3.637-0.678,9.045-0.68,9.352c-0.001,0.174,0.003,1.122,0.011,1.415
				c0,0.004,0.001,0.013,0.001,0.013c0.023,0.946,0.078,1.84,0.173,2.663c1.439,12.483,31.437,14.032,53.447,14.032
				c0.453,0,0.879-0.005,1.324-0.006c0.224,0,0.446,0.001,0.666,0.003h0.001h0.001c0.22-0.001,0.442-0.002,0.666-0.003
				c0.445,0.001,0.871,0.006,1.324,0.006c22.011,0,52.008-1.549,53.447-14.032c0.095-0.822,0.149-1.717,0.173-2.663
				c0,0,0.001-0.009,0.001-0.013c0.008-0.293,0.012-1.241,0.011-1.415C315.986,412.321,315.616,406.913,315.31,403.276z
				 M307.436,409.306c0,0.004,0,0.012,0,0.012c-0.021,0.823-0.066,1.602-0.147,2.317c-1.218,10.866-26.591,12.214-45.208,12.214
				c-0.384,0-0.744-0.004-1.12-0.005c-0.116,0-0.23,0.001-0.346,0.002c-0.114-0.001-0.229-0.001-0.345-0.002
				c-0.376,0.001-0.737,0.005-1.12,0.005c-18.618,0-43.991-1.348-45.209-12.214c-0.08-0.715-0.126-1.494-0.146-2.317
				c0,0-0.001-0.008-0.001-0.012c-0.007-0.255-0.009-1.08-0.009-1.231c0.002-0.267,0.314-4.975,0.575-8.141c0,0,0.001,0,0.002,0
				c1.34-11.576,4.095-19.38,5.747-30.996c1.653-11.615,6.085-47.362-0.412-74.526c-4.89-20.44-13.796-56.629-17.099-86.754
				c-2.432-22.191-2.405-44.142-1.907-48.079c0.449-3.559,31.481-5.338,59.924-5.34c28.442,0.002,59.476,1.782,59.925,5.34
				c0.498,3.938,0.252,28.476-2.181,50.667c-3.302,30.125-11.936,63.726-16.825,84.167c-6.497,27.164-2.066,62.911-0.412,74.526
				c1.652,11.615,4.406,19.419,5.746,30.996c0.002,0,0.004,0,0.004,0c0.26,3.166,0.572,7.874,0.574,8.141
				C307.445,408.226,307.443,409.051,307.436,409.306z"/>
			<path style="fill:#E6A52E;" d="M306.867,399.935c-1.34-11.576-4.094-19.38-5.746-30.996c-1.654-11.615-6.085-47.362,0.412-74.526
				c4.89-20.44,13.523-54.042,16.825-84.167c2.433-22.191,2.679-46.729,2.181-50.667c-0.449-3.559-31.482-5.338-59.925-5.34
				c-28.442,0.002-59.475,1.782-59.924,5.34c-0.498,3.938-0.524,25.888,1.907,48.079c3.303,30.125,12.209,66.314,17.099,86.754
				c6.497,27.164,2.065,62.911,0.412,74.526c-1.652,11.615-4.407,19.419-5.747,30.996c-0.001,0-0.002,0-0.002,0
				c-0.261,3.166-0.573,7.874-0.575,8.141c0,0.151,0.002,0.976,0.009,1.231c0,0.004,0.001,0.012,0.001,0.012
				c0.021,0.823,0.066,1.602,0.146,2.317c1.218,10.866,26.591,12.214,45.209,12.214c0.383,0,0.744-0.004,1.12-0.005
				c0.115,0,0.23,0.001,0.345,0.002c0.115-0.001,0.229-0.001,0.346-0.002c0.376,0.001,0.736,0.005,1.12,0.005
				c18.617,0,43.99-1.348,45.208-12.214c0.081-0.715,0.126-1.494,0.147-2.317c0,0,0-0.008,0-0.012c0.008-0.255,0.01-1.08,0.01-1.231
				c-0.002-0.267-0.314-4.975-0.574-8.141C306.871,399.935,306.869,399.935,306.867,399.935z"/>
		</g>
	</g>
</g>
</svg>
